# xmcd
#
# Track frame offsets:
#	150
#	12792
#	22862
#	40085
#	51500
#	64020
#	74010
#	85442
#	98950
#	114837
#	127425
#	135340
#	142590
#	155407
#	167637
#	180692
#	195807
#	203632
#	215217
#	226302
#
# Disc length: 3220
#
# Revision: 1
# Processed by: cddbd v1.5.1PL0 Copyright (c) Steve Scherf et al.
# Submitted via: CDex 1.50
# Normalized: r0:DSETVAR1,TDELIM( - )
#
DISCID=120c9214
DTITLE=Various Artist - Best Of Country
DYEAR=1900
DGENRE=Country
TTITLE0=Johnny Cash - Folsom Prison Blues
TTITLE1=Willie Nelson - Misery Mansion
TTITLE2=Kenny Rogers - Something Burning
TTITLE3=Billie Jo Spear - Stand By Your Man
TTITLE4=Jerry Lee Lewis - Crazy Arms
TTITLE5=Dolly Parton - Release Me
TTITLE6=Waylon Jennings - Sally Was A Good Old Girl
TTITLE7=Hoyt Axton - Lonesome Road
TTITLE8=Ray Pillow - How Do I Hide From A Memory
TTITLE9=Stonewall Jackson - Old Chunk Of Coal
TTITLE10=Faron Young - You're Cheatin'Heart
TTITLE11=Conway Twitty - Treat Me Mean Treat Me Cruel
TTITLE12=Patsy Cline - Yes I Understand
TTITLE13=Waylon Jennings - Don't Think Twice, It's Alright
TTITLE14=Donna Fargo - Daddy
TTITLE15=Carl Perkins - I Don't Want To Fall In Love Again
TTITLE16=Georges Jones - Jambalaya
TTITLE17=Willie Nelson - Night Life
TTITLE18=Johnny Cash - Cry! Cry! Cry!
TTITLE19=Kenny Rogers - For The Good Time
EXTD=
EXTT0=
EXTT1=
EXTT2=
EXTT3=
EXTT4=
EXTT5=
EXTT6=
EXTT7=
EXTT8=
EXTT9=
EXTT10=
EXTT11=
EXTT12=
EXTT13=
EXTT14=
EXTT15=
EXTT16=
EXTT17=
EXTT18=
EXTT19=
PLAYORDER=
